<svg xmlns="http://www.w3.org/2000/svg" version="1.1" xmlns:xlink="http://www.w3.org/1999/xlink" xmlns:svgjs="http://svgjs.dev/svgjs" width="128" height="128" viewBox="0 0 128 128"><g transform="matrix(0.8046875,0,0,0.8046875,12.221578124999994,29.70213495188746)"><svg viewBox="0 0 96 64" data-background-color="#89939e" preserveAspectRatio="xMidYMid meet" height="85" width="128" xmlns="http://www.w3.org/2000/svg" xmlns:xlink="http://www.w3.org/1999/xlink"><g id="tight-bounds" transform="matrix(1,0,0,1,0.25950000000000273,0.09230273833671276)"><svg viewBox="0 0 95.481 63.815394523326574" height="63.815394523326574" width="95.481"><g><svg viewBox="0 0 95.481 63.815394523326574" height="63.815394523326574" width="95.481"><g><svg viewBox="0 0 95.481 63.815394523326574" height="63.815394523326574" width="95.481"><g id="textblocktransform"><svg viewBox="0 0 95.481 63.815394523326574" height="63.815394523326574" width="95.481" id="textblock"><g><svg viewBox="0 0 95.481 63.815394523326574" height="63.815394523326574" width="95.481"><g><svg viewBox="0 0 95.481 63.815394523326574" height="63.815394523326574" width="95.481"><g><svg xmlns="http://www.w3.org/2000/svg" xmlns:xlink="http://www.w3.org/1999/xlink" version="1.1" x="0" y="0" viewBox="0.7 17.1 98.6 65.9" enable-background="new 0 0 100 100" xml:space="preserve" height="63.815394523326574" width="95.481" class="icon-icon-0" data-fill-palette-color="accent" id="icon-0"><path d="M93.6 33.3L90.5 28.5 48.6 54.8 40.5 41.9 5.1 64.3 0.7 57.4 43 30.6 51.1 43.5 86 21.6 83 17.1 99.3 18zM12.1 82.9H22.5V60.6L12.1 67.2zM28.7 56.7V82.9H39V51.2L38.5 50.4zM45.2 64.2V83H55.6V57.6L46.6 63.2zM61.8 82.9H72.2V47.2L61.8 53.7zM78.4 82.9H88.8V36.8L78.4 43.3z" fill="#482acc" data-fill-palette-color="accent"></path></svg></g></svg></g></svg></g></svg></g></svg></g><g></g></svg></g><defs></defs></svg><rect width="95.481" height="63.815394523326574" fill="none" stroke="none" visibility="hidden"></rect></g></svg></g></svg>